<svg xmlns="http://www.w3.org/2000/svg" xmlns:xlink="http://www.w3.org/1999/xlink" width="500" height="330" version="1.1"><defs><style class="exported-css" type="text/css">.axis line,.axis path{fill:none;stroke:#000;shape-rendering:crispedges}.axis text{font-family:sans-serif}.hit{stroke:rgba(255,255,255,.7);stroke-width:1px;cursor:pointer}.axis text,.axis-label{font-size:11px}</style></defs><polygon fill="#2D93C7" points="350.614 62 368.661 269 414.303 269 378.121 62" class="hit" style="opacity:1"/><polygon fill="#3697C9" points="324.707 62 324.397 269 368.524 269 350.96 62" class="hit" style="opacity:1"/><polygon fill="#69B2D7" points="267.714 62 226.923 269 251.76 269 282.589 62" class="hit" style="opacity:1"/><polygon fill="#80BEDD" points="193.526 62 103.869 269 122.48 269 204.714 62" class="hit" style="opacity:1"/><polygon fill="#82BEDE" points="287.243 62 257.805 269 277.918 269 299.283 62" class="hit" style="opacity:1"/><polygon fill="#83BFDE" points="124.091 62 103.869 269 122.48 269 135.323 62" class="hit" style="opacity:1"/><polygon fill="#87C1DF" points="380.036 62 418.321 269 433.939 269 389.387 62" class="hit" style="opacity:1"/><polygon fill="#88C2DF" points="147.047 62 135.53 269 151.963 269 156.905 62" class="hit" style="opacity:1"/><polygon fill="#89C2E0" points="84.324 62 20.007 269 35.849 269 93.849 62" class="hit" style="opacity:1"/><polygon fill="#8BC3E0" points="250.104 62 195.167 269 209.804 269 258.872 62" class="hit" style="opacity:1"/><polygon fill="#8CC4E0" points="311.288 62 304.458 269 319.304 269 320.173 62" class="hit" style="opacity:1"/><polygon fill="#8DC4E1" points="239.174 62 176.592 269 194.121 269 249.719 62" class="hit" style="opacity:1"/><polygon fill="#92C7E2" points="258.885 62 210.944 269 226.908 269 268.289 62" class="hit" style="opacity:1"/><polygon fill="#92C7E2" points="170.777 62 176.592 269 194.121 269 181.334 62" class="hit" style="opacity:1"/><polygon fill="#93C7E2" points="217.324 62 138.697 269 151.963 269 225.302 62" class="hit" style="opacity:1"/><polygon fill="#94C8E2" points="96.014 62 41.591 269 54.807 269 103.931 62" class="hit" style="opacity:1"/><polygon fill="#95C8E3" points="397.4 62 451.505 269 467.643 269 406.946 62" class="hit" style="opacity:1"/><polygon fill="#97CAE3" points="225.272 62 152.476 269 163.621 269 231.962 62" class="hit" style="opacity:1"/><polygon fill="#98CAE3" points="156.879 62 152.483 269 163.621 269 163.564 62" class="hit" style="opacity:1"/><polygon fill="#9ACBE4" points="183.863 62 86.368 269 99.519 269 191.762 62" class="hit" style="opacity:1"/><polygon fill="#9ACBE4" points="114.402 62 86.368 269 99.519 269 122.328 62" class="hit" style="opacity:1"/><polygon fill="#A0CEE6" points="304.365 62 292.706 269 304.039 269 311.184 62" class="hit" style="opacity:1"/><polygon fill="#A2CFE6" points="408.834 62 467.657 269 476.819 269 414.44 62" class="hit" style="opacity:1"/><polygon fill="#A2CFE6" points="389.794 62 436.291 269 443.974 269 394.396 62" class="hit" style="opacity:1"/><polygon fill="#A2CFE6" points="166.965 62 168.7 269 176.57 269 171.671 62" class="hit" style="opacity:1"/><polygon fill="#A2CFE6" points="235.363 62 168.7 269 176.57 269 240.069 62" class="hit" style="opacity:1"/><polygon fill="#A5D0E7" points="134.735 62 128.367 269 135.516 269 139.026 62" class="hit" style="opacity:1"/><polygon fill="#A5D0E7" points="204.126 62 128.367 269 135.516 269 208.418 62" class="hit" style="opacity:1"/><polygon fill="#A7D2E8" points="304.24 62 280.031 269 286.149 269 307.904 62" class="hit" style="opacity:1"/><polygon fill="#A7D2E8" points="106.775 62 64.308 269 71.226 269 110.876 62" class="hit" style="opacity:1"/><polygon fill="#ACD4E9" points="103.953 62 59.07 269 64.272 269 107.051 62" class="hit" style="opacity:1"/><polygon fill="#ADD5E9" points="110.05 62 71.745 269 77.841 269 113.646 62" class="hit" style="opacity:1"/><polygon fill="#ADD5E9" points="112.665 62 77.862 269 82.818 269 115.664 62" class="hit" style="opacity:1"/><polygon fill="#AED5E9" points="395.943 62 446.802 269 451.491 269 398.731 62" class="hit" style="opacity:1"/><polygon fill="#AED5E9" points="377.801 62 414.303 269 418.307 269 380.2 62" class="hit" style="opacity:1"/><polygon fill="#AFD6EA" points="121.796 62 99.822 269 103.861 269 124.225 62" class="hit" style="opacity:1"/><polygon fill="#AFD6EA" points="191.231 62 99.822 269 103.861 269 193.66 62" class="hit" style="opacity:1"/><polygon fill="#B0D6EA" points="181.719 62 195.167 269 198.709 269 183.841 62" class="hit" style="opacity:1"/><polygon fill="#B0D6EA" points="301.228 62 286.156 269 291.134 269 304.274 62" class="hit" style="opacity:1"/><polygon fill="#B0D6EA" points="103.637 62 54.814 269 58.904 269 106.066 62" class="hit" style="opacity:1"/><polygon fill="#B2D7EA" points="413.363 62 476.826 269 480 269 415.265 62" class="hit" style="opacity:1"/><polygon fill="#B3D8EB" points="114.419 62 82.84 269 86.346 269 116.546 62" class="hit" style="opacity:1"/><polygon fill="#B3D8EB" points="183.88 62 82.84 269 86.346 269 186.006 62" class="hit" style="opacity:1"/><polygon fill="#B5D9EB" points="135.72 62 123.086 269 126.195 269 137.643 62" class="hit" style="opacity:1"/><polygon fill="#B5D9EB" points="205.112 62 123.086 269 126.195 269 207.035 62" class="hit" style="opacity:1"/><g class="axis"><g class="tick" transform="translate(0,60) translate(37.75059891209398,0)" style="opacity:1"><line x2="0" y2="-6"/><text x="9" y="2" dx="0" dy="0" transform="rotate(-90)" style="text-anchor:start">160kb</text></g><g class="tick" transform="translate(0,60) translate(80.96621666056032,0)" style="opacity:1"><line x2="0" y2="-6"/><text x="9" y="2" dx="0" dy="0" transform="rotate(-90)" style="text-anchor:start">170kb</text></g><g class="tick" transform="translate(0,60) translate(124.18183440902664,0)" style="opacity:1"><line x2="0" y2="-6"/><text x="9" y="2" dx="0" dy="0" transform="rotate(-90)" style="text-anchor:start">180kb</text></g><g class="tick" transform="translate(0,60) translate(167.39745215749295,0)" style="opacity:1"><line x2="0" y2="-6"/><text x="9" y="2" dx="0" dy="0" transform="rotate(-90)" style="text-anchor:start">190kb</text></g><g class="tick" transform="translate(0,60) translate(210.6130699059593,0)" style="opacity:1"><line x2="0" y2="-6"/><text x="9" y="2" dx="0" dy="0" transform="rotate(-90)" style="text-anchor:start">200kb</text></g><g class="tick" transform="translate(0,60) translate(253.8286876544256,0)" style="opacity:1"><line x2="0" y2="-6"/><text x="9" y="2" dx="0" dy="0" transform="rotate(-90)" style="text-anchor:start">210kb</text></g><g class="tick" transform="translate(0,60) translate(297.04430540289195,0)" style="opacity:1"><line x2="0" y2="-6"/><text x="9" y="2" dx="0" dy="0" transform="rotate(-90)" style="text-anchor:start">220kb</text></g><g class="tick" transform="translate(0,60) translate(340.2599231513583,0)" style="opacity:1"><line x2="0" y2="-6"/><text x="9" y="2" dx="0" dy="0" transform="rotate(-90)" style="text-anchor:start">230kb</text></g><g class="tick" transform="translate(0,60) translate(383.47554089982464,0)" style="opacity:1"><line x2="0" y2="-6"/><text x="9" y="2" dx="0" dy="0" transform="rotate(-90)" style="text-anchor:start">240kb</text></g><g class="tick" transform="translate(0,60) translate(426.6911586482909,0)" style="opacity:1"><line x2="0" y2="-6"/><text x="9" y="2" dx="0" dy="0" transform="rotate(-90)" style="text-anchor:start">250kb</text></g><g class="tick" transform="translate(0,60) translate(469.90677639675727,0)" style="opacity:1"><line x2="0" y2="-6"/><text x="9" y="2" dx="0" dy="0" transform="rotate(-90)" style="text-anchor:start">260kb</text></g><path d="M20,-6V0H480V-6" class="domain" transform="translate(0,60)"/></g><g class="axis"><g class="tick" transform="translate(0,270) translate(20,0)" style="opacity:1"><line x2="0" y2="6"/><text x="-11" y="3" dx="0" dy="0" transform="rotate(-90)" style="text-anchor:end">0.0b</text></g><g class="tick" transform="translate(0,270) translate(56.06937866574664,0)" style="opacity:1"><line x2="0" y2="6"/><text x="-11" y="3" dx="0" dy="0" transform="rotate(-90)" style="text-anchor:end">5.0kb</text></g><g class="tick" transform="translate(0,270) translate(92.13875733149328,0)" style="opacity:1"><line x2="0" y2="6"/><text x="-11" y="3" dx="0" dy="0" transform="rotate(-90)" style="text-anchor:end">10kb</text></g><g class="tick" transform="translate(0,270) translate(128.20813599723994,0)" style="opacity:1"><line x2="0" y2="6"/><text x="-11" y="3" dx="0" dy="0" transform="rotate(-90)" style="text-anchor:end">15kb</text></g><g class="tick" transform="translate(0,270) translate(164.27751466298656,0)" style="opacity:1"><line x2="0" y2="6"/><text x="-11" y="3" dx="0" dy="0" transform="rotate(-90)" style="text-anchor:end">20kb</text></g><g class="tick" transform="translate(0,270) translate(200.3468933287332,0)" style="opacity:1"><line x2="0" y2="6"/><text x="-11" y="3" dx="0" dy="0" transform="rotate(-90)" style="text-anchor:end">25kb</text></g><g class="tick" transform="translate(0,270) translate(236.41627199447984,0)" style="opacity:1"><line x2="0" y2="6"/><text x="-11" y="3" dx="0" dy="0" transform="rotate(-90)" style="text-anchor:end">30kb</text></g><g class="tick" transform="translate(0,270) translate(272.48565066022644,0)" style="opacity:1"><line x2="0" y2="6"/><text x="-11" y="3" dx="0" dy="0" transform="rotate(-90)" style="text-anchor:end">35kb</text></g><g class="tick" transform="translate(0,270) translate(308.5550293259731,0)" style="opacity:1"><line x2="0" y2="6"/><text x="-11" y="3" dx="0" dy="0" transform="rotate(-90)" style="text-anchor:end">40kb</text></g><g class="tick" transform="translate(0,270) translate(344.62440799171975,0)" style="opacity:1"><line x2="0" y2="6"/><text x="-11" y="3" dx="0" dy="0" transform="rotate(-90)" style="text-anchor:end">45kb</text></g><g class="tick" transform="translate(0,270) translate(380.6937866574664,0)" style="opacity:1"><line x2="0" y2="6"/><text x="-11" y="3" dx="0" dy="0" transform="rotate(-90)" style="text-anchor:end">50kb</text></g><g class="tick" transform="translate(0,270) translate(416.763165323213,0)" style="opacity:1"><line x2="0" y2="6"/><text x="-11" y="3" dx="0" dy="0" transform="rotate(-90)" style="text-anchor:end">55kb</text></g><g class="tick" transform="translate(0,270) translate(452.8325439889597,0)" style="opacity:1"><line x2="0" y2="6"/><text x="-11" y="3" dx="0" dy="0" transform="rotate(-90)" style="text-anchor:end">60kb</text></g><path d="M20,6V0H480V6" class="domain" transform="translate(0,270)"/></g><text x="250" y="12" class="query axis-label" text-anchor="end">Query</text><text x="250" y="325" class="subject axis-label" text-anchor="end">Subject</text></svg>